<?xml version="1.0" encoding="UTF-8" standalone="no"?>
<!DOCTYPE svg PUBLIC "-//W3C//DTD SVG 20010904//EN" "http://www.w3.org/TR/2001/REC-SVG-20010904/DTD/svg10.dtd">
<svg version="1.0" xmlns="http://www.w3.org/2000/svg" width="412.000000pt" height="412.000000pt" viewBox="0 0 412.000000 412.000000" preserveAspectRatio="xMidYMid meet">
<metadata>
Created by potrace 1.11, written by Peter Selinger 2001-2013
</metadata>
<g transform="translate(0.000000,412.000000) scale(0.100000,-0.100000)" fill="#000000" stroke="none">
<path d="M2760 3089 c-110 -11 -248 -51 -330 -96 -84 -47 -198 -161 -234 -234 -69 -143 -76 -306 -19 -444 27 -64 88 -149 140 -195 97 -85 167 -116 493 -215 344 -104 419 -153 428 -284 13 -179 -123 -272 -399 -273 -207 0 -297 36 -431 173 -49 50 -95 89 -105 89 -11 0 -67 -34 -126 -75 -78 -55 -107 -81 -107 -96 0 -12 15 -42 34 -68 104 -140 268 -234 495 -283 128 -28 378 -30 495 -4 233 51 390 158 470 316 46 92 59 162 54 284 -5 117 -28 190 -85 274 -91 131 -213 196 -581 306 -266 80 -310 98 -366 146 -46 41 -66 87 -66 154 0 143 115 231 315 243 179 11 304 -30 417 -136 36 -33 71 -61 78 -61 17 0 218 150 225 169 13 34 -117 154 -234 215 -92 48 -222 84 -349 96 -59 5 -111 9 -117 9 -5 -1 -48 -5 -95 -10z"/>
<path d="M286 3054 c-14 -14 -16 -116 -16 -978 0 -735 3 -965 12 -974 16 -16 844 -17 973 -1 362 44 550 195 579 464 9 78 -8 196 -38 261 -43 94 -165 203 -264 235 -20 7 -53 19 -72 27 l-34 14 88 46 c103 53 195 134 226 198 118 242 20 514 -225 630 -166 79 -295 94 -814 94 -350 0 -402 -2 -415 -16z m946 -302 c114 -55 158 -127 158 -253 -1 -107 -43 -175 -140 -224 -74 -38 -148 -46 -370 -43 l-205 3 -3 265 c-1 146 0 271 3 278 4 11 51 13 247 10 l243 -3 67 -33z m-76 -813 c122 -23 226 -99 252 -187 15 -50 15 -143 1 -193 -24 -79 -104 -147 -207 -175 -61 -17 -457 -33 -506 -20 l-26 6 0 284 c0 218 3 286 13 289 24 10 415 7 473 -4z"/>
</g>
</svg>